<svg id="图层_1" data-name="图层 1" xmlns="http://www.w3.org/2000/svg" viewBox="0 0 309.46 322.9"><defs><style>.cls-1{fill:#1b2950;}.cls-2{fill:#183f96;}</style></defs><title>未标题-1</title><g id="_编组_" data-name="&lt;编组&gt;"><polygon id="_路径_" data-name="&lt;路径&gt;" class="cls-1" points="301.25 0 301.25 176.3 70.04 322.9 309.46 184.96 309.46 171.1 309.46 0 301.25 0"/><polygon id="_路径_2" data-name="&lt;路径&gt;" class="cls-1" points="95.43 273.93 64.15 322.9 64.15 0 95.43 0 95.43 273.93"/><polygon id="_路径_3" data-name="&lt;路径&gt;" class="cls-1" points="200.15 182.25 184.09 194.99 184.09 0 200.15 0 200.15 182.25"/><polygon id="_路径_4" data-name="&lt;路径&gt;" class="cls-1" points="258.63 153.68 250.43 160.03 250.43 0 258.63 0 258.63 153.68"/></g><g id="_编组_2" data-name="&lt;编组&gt;"><polygon id="_路径_5" data-name="&lt;路径&gt;" class="cls-2" points="127.84 236.65 184.09 194.99 184.09 0 127.84 0 127.84 118.75 64.15 134.64 64.15 0 0 22.66 0 322.9 64.15 322.9 64.15 184.96 127.84 169.08 127.84 236.65"/><polygon id="_路径_6" data-name="&lt;路径&gt;" class="cls-2" points="250.43 0 221.69 0 221.69 178.16 250.43 160.03 250.43 0"/><polygon id="_路径_7" data-name="&lt;路径&gt;" class="cls-2" points="274.73 0 274.73 160.03 70.04 322.9 301.25 178.16 301.25 0 274.73 0"/></g></svg>